<mxfile host="app.diagrams.net" modified="2024-03-18T03:18:12.949Z" agent="Mozilla/5.0 (Windows NT 10.0; Win64; x64) AppleWebKit/537.36 (KHTML, like Gecko) Chrome/122.0.0.0 Safari/537.36" version="24.0.6" etag="DWXLBMQqL4AABIHa3cPV" type="github">
  <diagram name="Page-1" id="g_nydXo4ztZp-hx2b2BG">
    <mxGraphModel>
      <root>
        <mxCell id="0" />
        <mxCell id="1" parent="0" />
      </root>
    </mxGraphModel>
  </diagram>
</mxfile>
